<?xml version="1.0" encoding="utf-8"?>
<!-- Generator: Adobe Illustrator 25.0.0, SVG Export Plug-In . SVG Version: 6.00 Build 0)  -->
<svg version="1.1" id="Layer_2" xmlns="http://www.w3.org/2000/svg" xmlns:xlink="http://www.w3.org/1999/xlink" x="0px" y="0px"
	 viewBox="0 0 590.75 36" style="enable-background:new 0 0 590.75 36;" xml:space="preserve">
<style type="text/css">
	.st0{fill:#D7D7D7;}
</style>
<g>
	<path class="st0" d="M20.8,3.48C20.8,4.49,19.33,5,16.4,5C13.47,5,12,8.83,12,16.48C12,24.16,11.47,28,10.4,28
		c-1.07,0-1.6-3.84-1.6-11.52C8.8,8.83,7.33,5,4.4,5C1.47,5,0,4.49,0,3.48C0,2.49,3.47,2,10.4,2C17.33,2,20.8,2.49,20.8,3.48z"/>
	<path class="st0" d="M29.8,28.4l-4.08-2.52l-2.28-4.68v-6.32l2.28-4.72L29.8,7.6h5.24l4.04,2.56l2.28,4.72v6.32l-2.24,4.68
		l-4.04,2.52H29.8z M35.04,25.32l3.12-3.84V14.6l-3.12-3.92h-5.2l-3.2,3.92v6.88l3.16,3.84H35.04z"/>
	<path class="st0" d="M51.8,28.4l-4.08-2.52l-2.28-4.68v-6.32l2.28-4.72L51.8,7.6h5.24l4.04,2.56l2.28,4.72v6.32l-2.24,4.68
		l-4.04,2.52H51.8z M57.04,25.32l3.12-3.84V14.6l-3.12-3.92h-5.2l-3.2,3.92v6.88l3.16,3.84H57.04z"/>
	<path class="st0" d="M82.56,25c1.41,0,2.12,0.49,2.12,1.48c0,1.01-0.71,1.52-2.12,1.52h-5.32l-3.64-3.36V12.08
		C73.6,6.03,72.66,3,70.8,3c-1.89,0-2.84-0.51-2.84-1.52C67.96,0.49,68.9,0,70.8,0h4.4c1.07,0,1.6,3.53,1.6,10.6v12.72l1.92,1.72
		c0.56-0.03,1.16-0.04,1.8-0.04S81.84,25,82.56,25z"/>
	<path class="st0" d="M91.56,21.56c0.96,0,1.59,0.55,1.88,1.64l3.28,2.16h4.92l1.92-1.36v-2.64l-1.84-1.28
		c-0.93-0.16-1.95-0.34-3.04-0.54s-2.27-0.41-3.52-0.62l-3.92-2.84v-5.24l3.88-3.24h6.44l3.96,3.44c0.05,2-0.39,3-1.32,3
		c-0.96,0-1.61-1.09-1.96-3.28h-5.72l-2.08,1.36v2.48l2.24,1.4c0.96,0.19,1.99,0.39,3.1,0.6c1.11,0.21,2.29,0.43,3.54,0.64
		l3.44,2.68v5.44l-3.72,3.04h-6.96l-4.4-2.56l-1.72-3.24C90.04,21.91,90.57,21.56,91.56,21.56z"/>
	<path class="st0" d="M144,5.08c-5.07,0-7.6,1.4-7.6,4.2c0,2.83,2.08,4.24,6.24,4.24c4.13,0,6.2,0.51,6.2,1.52
		c0,1.04-2.07,1.56-6.2,1.56c-4.16,0-6.24,1.89-6.24,5.68c0,3.81-0.53,5.72-1.6,5.72s-1.6-4.33-1.6-13c0-8.67,3.07-13,9.2-13
		c6.13,0,9.2,0.51,9.2,1.52C151.6,4.56,149.06,5.08,144,5.08z"/>
	<path class="st0" d="M161.8,28.4l-4.08-2.52l-2.28-4.68v-6.32l2.28-4.72l4.08-2.56h5.24l4.04,2.56l2.28,4.72v6.32l-2.24,4.68
		l-4.04,2.52H161.8z M167.04,25.32l3.12-3.84V14.6l-3.12-3.92h-5.2l-3.2,3.92v6.88l3.16,3.84H167.04z"/>
	<path class="st0" d="M189.72,10.88l-4.04,2.6c-0.4,1.04-0.6,3.21-0.6,6.52c0,3.33,1.16,5,3.48,5c2.29,0,3.44,0.49,3.44,1.48
		c0,1.01-2.35,1.52-7.04,1.52s-7.04-0.51-7.04-1.52c0-0.99,0.67-1.48,2-1.48c1.31,0,1.96-2.84,1.96-8.52c0-5.65,0.53-8.48,1.6-8.48
		c1.07,0,1.6,0.87,1.6,2.6c0,0.85,0.06,1.33,0.18,1.42c0.12,0.09,0.29-0.21,0.5-0.9l4.12-3.52c2.72,0,4.08,0.55,4.08,1.64
		S192.54,10.88,189.72,10.88z"/>
	<path class="st0" d="M239.23,24.16l-4.44,3.64c-1.25,0.05-2.51,0.12-3.76,0.2h-4.92c-3.28,0-4.92-4.33-4.92-13
		c0-8.67,1.44-13,4.32-13h8.36l4.52,3.68v5.96l-2.84,2.8c-0.88,0.13-1.29,0.27-1.24,0.4c0.05,0.13,0.57,0.25,1.56,0.36l3.36,2.6
		V24.16z M227.11,5.12c-1.81,0-2.72,1.4-2.72,4.2c0,2.83,0.84,4.24,2.52,4.24h5.28l3.04-2.28V7.04l-2.92-1.92H227.11z M236.03,24.88
		V18.4l-3.68-1.72h-5.44c-1.68,0-2.52,1.36-2.52,4.08c0,2.75,0.97,4.12,2.92,4.12H236.03z"/>
	<path class="st0" d="M259.71,21.56c1.01,0,1.35,1.01,1,3.04l-4.2,3.8h-6.28l-4.36-2.64l-2.44-4.72v-6l2.36-4.76l4.28-2.68h7.12
		l4.36,5.8c-0.16,3.63-2.68,5.44-7.56,5.44c-4.91,0-7.27,0.97-7.08,2.92l3.44,3.56h6.68C257.78,22.81,258.67,21.56,259.71,21.56z
		 M250.35,10.68l-2.92,2.8c-0.4,1.65,1.27,2.48,5,2.48s5.55-0.85,5.44-2.56l-2.76-2.72H250.35z"/>
	<path class="st0" d="M278.35,11c-2.64,0-3.96,1.69-3.96,5.08v7.24l1.92,1.72c0.56-0.03,1.16-0.04,1.8-0.04s1.32,0,2.04,0
		c1.41,0,2.12,0.49,2.12,1.48c0,1.01-0.71,1.52-2.12,1.52h-5.32l-3.64-3.36v-8.56c0-3.39-0.84-5.08-2.52-5.08
		c-1.71,0-2.56-0.51-2.56-1.52c0-0.99,0.85-1.48,2.56-1.48c1.68,0,2.52-0.87,2.52-2.6s0.53-2.6,1.6-2.6s1.6,0.87,1.6,2.6
		s1.32,2.6,3.96,2.6c2.61,0,3.92,0.49,3.92,1.48C282.27,10.49,280.97,11,278.35,11z"/>
	<path class="st0" d="M300.35,11c-2.64,0-3.96,1.69-3.96,5.08v7.24l1.92,1.72c0.56-0.03,1.16-0.04,1.8-0.04c0.64,0,1.32,0,2.04,0
		c1.41,0,2.12,0.49,2.12,1.48c0,1.01-0.71,1.52-2.12,1.52h-5.32l-3.64-3.36v-8.56c0-3.39-0.84-5.08-2.52-5.08
		c-1.71,0-2.56-0.51-2.56-1.52c0-0.99,0.85-1.48,2.56-1.48c1.68,0,2.52-0.87,2.52-2.6s0.53-2.6,1.6-2.6c1.07,0,1.6,0.87,1.6,2.6
		s1.32,2.6,3.96,2.6c2.61,0,3.92,0.49,3.92,1.48C304.27,10.49,302.97,11,300.35,11z"/>
	<path class="st0" d="M325.71,21.56c1.01,0,1.35,1.01,1,3.04l-4.2,3.8h-6.28l-4.36-2.64l-2.44-4.72v-6l2.36-4.76l4.28-2.68h7.12
		l4.36,5.8c-0.16,3.63-2.68,5.44-7.56,5.44c-4.91,0-7.27,0.97-7.08,2.92l3.44,3.56h6.68C323.78,22.81,324.67,21.56,325.71,21.56z
		 M316.35,10.68l-2.92,2.8c-0.4,1.65,1.27,2.48,5,2.48c3.73,0,5.55-0.85,5.44-2.56l-2.76-2.72H316.35z"/>
	<path class="st0" d="M343.71,10.88l-4.04,2.6c-0.4,1.04-0.6,3.21-0.6,6.52c0,3.33,1.16,5,3.48,5c2.29,0,3.44,0.49,3.44,1.48
		c0,1.01-2.35,1.52-7.04,1.52c-4.69,0-7.04-0.51-7.04-1.52c0-0.99,0.67-1.48,2-1.48c1.31,0,1.96-2.84,1.96-8.52
		c0-5.65,0.53-8.48,1.6-8.48s1.6,0.87,1.6,2.6c0,0.85,0.06,1.33,0.18,1.42c0.12,0.09,0.29-0.21,0.5-0.9l4.12-3.52
		c2.72,0,4.08,0.55,4.08,1.64S346.54,10.88,343.71,10.88z"/>
	<path class="st0" d="M393.99,9.36v11.28l-5.8,7.36h-9.72c-2.19,0-3.28-4.33-3.28-13c0-8.67,1.09-13,3.28-13h9.72L393.99,9.36z
		 M386.91,24.92l3.92-5.6v-8.84l-3.88-5.4h-6.88c-1.12,0-1.68,3.31-1.68,9.92s0.56,9.92,1.68,9.92H386.91z"/>
	<path class="st0" d="M413.71,21.56c1.01,0,1.35,1.01,1,3.04l-4.2,3.8h-6.28l-4.36-2.64l-2.44-4.72v-6l2.36-4.76l4.28-2.68h7.12
		l4.36,5.8c-0.16,3.63-2.68,5.44-7.56,5.44c-4.91,0-7.27,0.97-7.08,2.92l3.44,3.56h6.68C411.78,22.81,412.67,21.56,413.71,21.56z
		 M404.35,10.68l-2.92,2.8c-0.4,1.65,1.27,2.48,5,2.48s5.55-0.85,5.44-2.56l-2.76-2.72H404.35z"/>
	<path class="st0" d="M436.15,8c0.32,0,0.45,0.36,0.4,1.08c-0.05,0.72-0.25,1.67-0.58,2.86c-0.33,1.19-0.76,2.49-1.28,3.92
		c-0.52,1.43-1.08,2.85-1.68,4.28c-0.6,1.43-1.2,2.73-1.8,3.92c-0.6,1.19-1.15,2.14-1.64,2.86S428.68,28,428.39,28
		c-0.29,0-0.69-0.36-1.18-1.08c-0.49-0.72-1.04-1.67-1.64-2.86c-0.6-1.19-1.2-2.49-1.8-3.92c-0.6-1.43-1.16-2.85-1.68-4.28
		c-0.52-1.43-0.94-2.73-1.26-3.92c-0.32-1.19-0.51-2.14-0.56-2.86S420.35,8,420.67,8c1.15,0,2.72,2.68,4.72,8.04
		c1.97,5.36,3.97,5.36,6,0C433.39,10.68,434.98,8,436.15,8z"/>
	<path class="st0" d="M457.71,21.56c1.01,0,1.35,1.01,1,3.04l-4.2,3.8h-6.28l-4.36-2.64l-2.44-4.72v-6l2.36-4.76l4.28-2.68h7.12
		l4.36,5.8c-0.16,3.63-2.68,5.44-7.56,5.44c-4.91,0-7.27,0.97-7.08,2.92l3.44,3.56h6.68C455.78,22.81,456.67,21.56,457.71,21.56z
		 M448.35,10.68l-2.92,2.8c-0.4,1.65,1.27,2.48,5,2.48s5.55-0.85,5.44-2.56l-2.76-2.72H448.35z"/>
	<path class="st0" d="M478.55,25c1.41,0,2.12,0.49,2.12,1.48c0,1.01-0.71,1.52-2.12,1.52h-5.32l-3.64-3.36V12.08
		c0-6.05-0.93-9.08-2.8-9.08c-1.89,0-2.84-0.51-2.84-1.52c0-0.99,0.95-1.48,2.84-1.48h4.4c1.07,0,1.6,3.53,1.6,10.6v12.72l1.92,1.72
		c0.56-0.03,1.16-0.04,1.8-0.04S477.83,25,478.55,25z"/>
	<path class="st0" d="M491.79,28.4l-4.08-2.52l-2.28-4.68v-6.32l2.28-4.72l4.08-2.56h5.24l4.04,2.56l2.28,4.72v6.32l-2.24,4.68
		l-4.04,2.52H491.79z M497.03,25.32l3.12-3.84V14.6l-3.12-3.92h-5.2l-3.2,3.92v6.88l3.16,3.84H497.03z"/>
	<path class="st0" d="M519.91,7.6l3.48,2.64l1.96,4.72v6l-2,4.76l-3.68,2.68h-7.32c-0.83-3.97-1.24-3.72-1.24,0.76
		c0,4.56-0.53,6.84-1.6,6.84c-1.07,0-1.6-4.67-1.6-14s0.52-14,1.56-14c1.01,0,1.52,0.15,1.52,0.44l0.12,2.36v2.44
		c0,0.43,0.05,0.5,0.16,0.22s0.27-0.9,0.48-1.86l3.2-4H519.91z M519.59,25.28l2.56-3.92v-6.68l-2.76-4h-5.28l-3,4.12v6.52l3,3.96
		H519.59z"/>
	<path class="st0" d="M545.71,21.56c1.01,0,1.35,1.01,1,3.04l-4.2,3.8h-6.28l-4.36-2.64l-2.44-4.72v-6l2.36-4.76l4.28-2.68h7.12
		l4.36,5.8c-0.16,3.63-2.68,5.44-7.56,5.44c-4.91,0-7.27,0.97-7.08,2.92l3.44,3.56h6.68C543.77,22.81,544.67,21.56,545.71,21.56z
		 M536.35,10.68l-2.92,2.8c-0.4,1.65,1.27,2.48,5,2.48s5.55-0.85,5.44-2.56l-2.76-2.72H536.35z"/>
	<path class="st0" d="M563.71,10.88l-4.04,2.6c-0.4,1.04-0.6,3.21-0.6,6.52c0,3.33,1.16,5,3.48,5c2.29,0,3.44,0.49,3.44,1.48
		c0,1.01-2.35,1.52-7.04,1.52s-7.04-0.51-7.04-1.52c0-0.99,0.67-1.48,2-1.48c1.31,0,1.96-2.84,1.96-8.52c0-5.65,0.53-8.48,1.6-8.48
		c1.07,0,1.6,0.87,1.6,2.6c0,0.85,0.06,1.33,0.18,1.42c0.12,0.09,0.29-0.21,0.5-0.9l4.12-3.52c2.72,0,4.08,0.55,4.08,1.64
		S566.53,10.88,563.71,10.88z"/>
	<path class="st0" d="M575.55,21.56c0.96,0,1.59,0.55,1.88,1.64l3.28,2.16h4.92l1.92-1.36v-2.64l-1.84-1.28
		c-0.93-0.16-1.95-0.34-3.04-0.54c-1.09-0.2-2.27-0.41-3.52-0.62l-3.92-2.84v-5.24l3.88-3.24h6.44l3.96,3.44c0.05,2-0.39,3-1.32,3
		c-0.96,0-1.61-1.09-1.96-3.28h-5.72l-2.08,1.36v2.48l2.24,1.4c0.96,0.19,1.99,0.39,3.1,0.6c1.11,0.21,2.29,0.43,3.54,0.64
		l3.44,2.68v5.44l-3.72,3.04h-6.96l-4.4-2.56l-1.72-3.24C574.03,21.91,574.56,21.56,575.55,21.56z"/>
</g>
<circle cx="28.28" cy="14.99" r="3.15"/>
<circle cx="50.43" cy="14.99" r="3.15"/>
</svg>
